PathFileType	4	(X/Y/Z)	D:\luciana\glass.trc
DataRate	CameraRate	NumFrames	NumMarkers	Units	OrigDataRate	OrigDataStartFrame	OrigNumFrames
250.00	250.00	10	19	mm	250.00	1759	2010
Frame#	Time	pelvisR			PelvisL			Trunk1			Trunk2			Trunk3			C7			shoulder			upperArm1			upperArm2			upperArm3			elbow			forearm1			forearm2			forearm3			wrist1			wrist2			wrist3			Object			Hand			
		X1	Y1	Z1	X2	Y2	Z2	X3	Y3	Z3	X4	Y4	Z4	X5	Y5	Z5	X6	Y6	Z6	X7	Y7	Z7	X8	Y8	Z8	X9	Y9	Z9	X10	Y10	Z10	X11	Y11	Z11	X12	Y12	Z12	X13	Y13	Z13	X14	Y14	Z14	X15	Y15	Z15	X16	Y16	Z16	X17	Y17	Z17	X18	Y18	Z18	X19	Y19	Z19	

1758	7.032000	1734.574199	645.094752	681.552291	1399.532795	648.919165	667.387843	1611.212492	848.300278	934.874952	1640.645146	759.413958	921.833575	1550.466537	795.379996	918.558419	1572.326303	1128.835797	823.061466	1751.632929	1048.738241	773.981035	1863.770723	874.270678	724.249125	1823.797464	852.923810	787.173390	1806.591511	894.713044	673.667789	1834.461212	746.234179	677.212238	1872.934341	697.575808	615.139365	1816.321969	736.950934	586.278915	1837.859631	654.717684	674.812555	1812.299848	657.215357	477.317870	1837.928295	594.387054	520.591378	1740.905523	667.593360	494.058847	1571.151614	768.043816	246.559680	1789.823532	572.503805	420.073956	
1759	7.036000	1734.577298	645.093322	681.558788	1399.493456	648.947001	667.399704	1611.246586	848.322988	934.850454	1640.662193	759.443939	921.814144	1550.478816	795.398533	918.545485	1572.383404	1128.837705	822.988749	1751.660466	1048.724651	773.902476	1863.791347	874.242306	724.191189	1823.834419	852.910101	787.117004	1806.620598	894.691408	673.613787	1834.479809	746.212184	677.171946	1872.932076	697.565079	615.085423	1816.313744	736.923456	586.235583	1837.898016	654.706120	674.774408	1812.234044	657.209516	477.276057	1837.958336	594.415069	520.534635	1740.871668	667.549729	494.065940	1571.273685	768.082976	246.621609	1789.790869	572.491169	420.057505	
1760	7.040000	1734.567642	645.085633	681.559026	1399.534941	648.933828	667.401135	1611.286640	848.350167	934.812188	1640.678048	759.470880	921.801150	1550.479889	795.418978	918.513298	1572.469115	1128.839850	822.896361	1751.693606	1048.720360	773.829937	1863.817930	874.226451	724.143982	1823.857069	852.893591	787.066698	1806.644320	894.662738	673.564374	1834.499955	746.178389	677.130640	1872.941375	697.557151	615.033984	1816.300392	736.896932	586.202145	1837.936282	654.690444	674.742162	1812.179685	657.210827	477.247953	1837.969780	594.432652	520.468414	1740.842342	667.510033	494.070292	1571.414948	768.128872	246.687278	1789.731741	572.479486	420.027524	
1761	7.044000	1734.559417	645.085096	681.554556	1399.598837	648.923934	667.393029	1611.285567	848.359764	934.764504	1640.683889	759.498179	921.769619	1550.493479	795.443654	918.491244	1572.552681	1128.839493	822.829425	1751.728058	1048.715234	773.776174	1863.849401	874.216855	724.095881	1823.850751	852.873564	787.019372	1806.678295	894.638777	673.517883	1834.514618	746.158421	677.092135	1872.953057	697.545171	614.965796	1816.293836	736.869335	586.166084	1837.980628	654.672384	674.697042	1812.123537	657.207072	477.213442	1837.966323	594.440222	520.408869	1740.826607	667.475283	494.072318	1571.229339	768.076777	246.596783	1789.675593	572.462499	419.990450	
1762	7.048000	1734.547615	645.071149	681.554079	1399.618387	648.914933	667.429686	1611.297846	848.392665	934.734225	1640.688658	759.515464	921.752691	1550.512910	795.479774	918.474197	1572.638750	1128.842235	822.752297	1751.758337	1048.704267	773.691714	1863.878250	874.192715	724.041700	1823.889017	852.870941	786.972165	1806.695938	894.612551	673.463643	1834.532976	746.139348	677.060187	1872.967243	697.533131	614.913523	1816.287756	736.837685	586.135626	1838.018894	654.640198	674.655855	1812.059522	657.195807	477.188498	1837.947845	594.432056	520.348489	1740.812659	667.439222	494.065583	1571.187615	768.064082	246.579587	1789.645314	572.458744	419.973910	
1763	7.052000	1734.547257	645.072222	681.553483	1399.593830	648.912907	667.453825	1611.330032	848.413348	934.716463	1640.695810	759.541392	921.734095	1550.524354	795.511007	918.461978	1572.704911	1128.832936	822.677493	1751.791716	1048.682094	773.602128	1863.905072	874.172270	723.989308	1823.945522	852.870703	786.929548	1806.724310	894.591928	673.417211	1834.568024	746.120811	677.030325	1872.977614	697.521389	614.874601	1816.279769	736.804366	586.111486	1838.059664	654.604673	674.617350	1812.010050	657.186985	477.160007	1837.952018	594.423175	520.302474	1740.799665	667.401731	494.070888	1571.174264	768.057048	246.573061	1789.597631	572.450638	419.947773	
1764	7.056000	1734.543800	645.081878	681.563914	1399.531245	648.929417	667.469978	1611.357689	848.422706	934.686661	1640.707493	759.571850	921.721220	1550.535202	795.531929	918.443680	1572.767615	1128.819942	822.578311	1751.821041	1048.665762	773.519218	1863.931298	874.152362	723.935902	1824.012518	852.868557	786.881685	1806.763053	894.561529	673.376322	1834.588289	746.087134	676.974356	1872.992992	697.505534	614.808977	1816.270828	736.773252	586.078167	1838.102102	654.564500	674.585462	1811.965108	657.174528	477.125227	1837.966681	594.423056	520.253420	1740.787387	667.363942	494.079947	1571.164608	768.051744	246.564791	1789.557457	572.440505	419.920176	
1765	7.060000	1734.534979	645.078719	681.567669	1399.473190	648.951590	667.456269	1611.357093	848.441362	934.641659	1640.714884	759.587824	921.703577	1550.541997	795.564950	918.429136	1572.849870	1128.820419	822.497725	1751.849174	1048.650742	773.419082	1863.961935	874.129295	723.882556	1824.054122	852.867246	786.841512	1806.783438	894.519508	673.310637	1834.611058	746.059656	676.940680	1873.032689	697.490454	614.742219	1816.280246	736.740053	586.044848	1838.139653	654.543638	674.547136	1811.923027	657.159626	477.101982	1837.973714	594.416082	520.203471	1740.778327	667.337358	494.084418	1571.149349	768.042922	246.554822	1789.528489	572.422147	419.890612	
1766	7.064000	1734.516740	645.074368	681.574047	1399.450779	648.952544	667.466521	1611.373186	848.476648	934.602916	1640.712619	759.599090	921.676397	1550.546050	795.583487	918.397844	1572.929859	1128.804326	822.419941	1751.880646	1048.637986	773.311496	1863.999844	874.120593	723.831475	1824.113369	852.877498	786.789358	1806.813359	894.484043	673.249006	1834.667802	746.044934	676.916718	1873.057604	697.474778	614.688993	1816.287279	736.707389	586.025357	1838.174105	654.522181	674.504042	1811.897159	657.143116	477.077693	1837.992430	594.406843	520.176172	1740.776539	667.309701	494.086444	1571.137547	768.045247	246.552616	1789.474726	572.406352	419.865817	
1767	7.068000	1734.500647	645.070314	681.567967	1399.541736	648.899794	667.491019	1611.397028	848.510385	934.573054	1640.731454	759.629250	921.660364	1550.558329	795.608044	918.370128	1573.010445	1128.800750	822.332442	1751.911879	1048.624754	773.208618	1864.033222	874.100566	723.788202	1824.150085	852.885485	786.734045	1806.865692	894.458055	673.192739	1834.718704	746.016204	676.895678	1873.092771	697.458625	614.633560	1816.293240	736.675680	585.994720	1838.213682	654.487848	674.467325	1811.881423	657.127202	477.053553	1838.006020	594.400287	520.129383	1740.779161	667.275429	494.089872	1571.154952	768.051147	246.567577	1789.441824	572.389126	419.842035	
